<mxfile host="app.diagrams.net" modified="2023-05-03T15:32:23.367Z" agent="Mozilla/5.0 (Macintosh; Intel Mac OS X 10_15_7) AppleWebKit/605.1.15 (KHTML, like Gecko) Version/16.4 Safari/605.1.15" version="21.2.6" etag="Sd2PuSlCC7Sr5dhIlPEt" type="github">
  <diagram name="Page-1" id="6HOKj_-fIrKgkrOSooi2">
    <mxGraphModel>
      <root>
        <mxCell id="0" />
        <mxCell id="1" parent="0" />
      </root>
    </mxGraphModel>
  </diagram>
</mxfile>
